<svg xmlns="http://www.w3.org/2000/svg" width="26" height="24" viewBox="0 0 26 24">
  <g id="bed" fill="#173143" stroke-miterlimit="10">
    <path d="M 25.45829963684082 23.65030097961426 L 23.29199981689453 23.65030097961426 C 23.18624114990234 23.65030097961426 23.10020065307617 23.56264114379883 23.10020065307617 23.45490074157715 L 23.10020065307617 21.81780052185059 L 23.10020065307617 21.46780014038086 L 22.75020027160645 21.46780014038086 L 3.249900579452515 21.46780014038086 L 2.899900436401367 21.46780014038086 L 2.899900436401367 21.81780052185059 L 2.899900436401367 23.45490074157715 C 2.899900436401367 23.56264114379883 2.813860654830933 23.65030097961426 2.708100557327271 23.65030097961426 L 0.5418005585670471 23.65030097961426 C 0.4360405504703522 23.65030097961426 0.3500005304813385 23.56264114379883 0.3500005304813385 23.45490074157715 L 0.3500005304813385 21.27239990234375 L 0.3500005304813385 16.90920066833496 C 0.3500005304813385 16.82032012939453 0.361050546169281 16.72797012329102 0.3837805390357971 16.62687110900879 L 0.4065705537796021 16.52548980712891 L 0.3703505396842957 16.4281005859375 C 0.3439805507659912 16.35721015930176 0.3556205332279205 16.31973075866699 0.3594505488872528 16.30742073059082 L 2.501030445098877 9.296650886535645 L 2.516300439834595 9.246670722961426 L 2.516300439834595 9.194400787353516 L 2.516300439834595 2.727000713348389 C 2.516300439834595 1.41632068157196 3.574540615081787 0.3500006794929504 4.875300407409668 0.3500006794929504 L 21.12479972839355 0.3500006794929504 C 22.4250602722168 0.3500006794929504 23.48290061950684 1.41632068157196 23.48290061950684 2.727000713348389 L 23.48290061950684 9.194400787353516 L 23.48290061950684 9.24669075012207 L 23.4981803894043 9.296690940856934 L 25.64018058776855 16.3058910369873 C 25.64425086975098 16.31910133361816 25.65587997436523 16.35682106018066 25.62919044494629 16.42961120605469 L 25.59372138977051 16.52634048461914 L 25.61631965637207 16.62687110900879 C 25.63905143737793 16.72797012329102 25.65010070800781 16.82032012939453 25.65010070800781 16.90920066833496 L 25.65010070800781 21.27239990234375 L 25.65010070800781 23.45490074157715 C 25.65010070800781 23.56264114379883 25.56406021118164 23.65030097961426 25.45829963684082 23.65030097961426 Z" stroke="none"/>
    <path d="M 25.30010032653809 23.30030059814453 L 25.30010032653809 21.27239990234375 L 25.30010032653809 16.90920066833496 C 25.30010032653809 16.84646987915039 25.29183959960938 16.77923011779785 25.27484130859375 16.7036304473877 L 25.22974967956543 16.50230026245117 L 25.28673362731934 16.34690284729004 L 23.16345977783203 9.398981094360352 L 23.13290023803711 9.298970222473145 L 23.13290023803711 9.194400787353516 L 23.13290023803711 2.727000713348389 C 23.13290023803711 1.609310626983643 22.23207092285156 0.7000007033348083 21.12479972839355 0.7000007033348083 L 4.875300407409668 0.7000007033348083 C 3.76753044128418 0.7000007033348083 2.866300582885742 1.609310626983643 2.866300582885742 2.727000713348389 L 2.866300582885742 9.194400787353516 L 2.866300582885742 9.298931121826172 L 2.835760593414307 9.398900985717773 L 0.7134536504745483 16.34657669067383 L 0.7708405256271362 16.50088119506836 L 0.7252605557441711 16.7036304473877 C 0.7082605361938477 16.77923011779785 0.700000524520874 16.84646987915039 0.700000524520874 16.90920066833496 L 0.700000524520874 21.27239990234375 L 0.700000524520874 23.30030059814453 L 2.549900531768799 23.30030059814453 L 2.549900531768799 21.81780052185059 L 2.549900531768799 21.11779975891113 L 3.249900579452515 21.11779975891113 L 22.75020027160645 21.11779975891113 L 23.4502010345459 21.11779975891113 L 23.4502010345459 21.81780052185059 L 23.4502010345459 23.30030059814453 L 25.30010032653809 23.30030059814453 M 25.45829963684082 24.00030136108398 L 23.29199981689453 24.00030136108398 C 22.99230003356934 24.00030136108398 22.75020027160645 23.75550079345703 22.75020027160645 23.45490074157715 L 22.75020027160645 21.81780052185059 L 3.249900579452515 21.81780052185059 L 3.249900579452515 23.45490074157715 C 3.249900579452515 23.75550079345703 3.006900548934937 24.00030136108398 2.708100557327271 24.00030136108398 L 0.5418005585670471 24.00030136108398 C 0.2430005520582199 24.00030136108398 5.447387820822769e-07 23.75550079345703 5.447387820822769e-07 23.45490074157715 L 5.447387820822769e-07 21.27239990234375 L 5.447387820822769e-07 16.90920066833496 C 5.447387820822769e-07 16.78499984741211 0.01620054431259632 16.66620063781738 0.04230054467916489 16.55010032653809 C 0.001800544792786241 16.44120025634766 -0.01169945485889912 16.32240104675293 0.02520054392516613 16.20359992980957 L 2.166300535202026 9.194400787353516 L 2.166300535202026 2.727000713348389 C 2.166300535202026 1.224000692367554 3.381300449371338 6.805419729971618e-07 4.875300407409668 6.805419729971618e-07 L 21.12479972839355 6.805419729971618e-07 C 22.61880111694336 6.805419729971618e-07 23.83290100097656 1.224000692367554 23.83290100097656 2.727000713348389 L 23.83290100097656 9.194400787353516 L 25.97490119934082 16.20359992980957 C 26.01180076599121 16.32330131530762 25.99740028381348 16.44210052490234 25.95779991149902 16.55010032653809 C 25.98390007019043 16.66620063781738 26.00010108947754 16.78499984741211 26.00010108947754 16.90920066833496 L 26.00010108947754 21.27239990234375 L 26.00010108947754 23.45490074157715 C 26.00010108947754 23.75550079345703 25.75710105895996 24.00030136108398 25.45829963684082 24.00030136108398 Z" stroke="none" fill="#20d994"/>
  </g>
</svg>
