<svg id="building-with-big-windows" xmlns="http://www.w3.org/2000/svg" width="18.57" height="24" viewBox="0 0 18.57 24">
  <g id="Shape" fill="#173143" stroke-miterlimit="10">
    <path d="M 18.02700042724609 23.50030136108398 L 0.5427001118659973 23.50030136108398 C 0.5187601447105408 23.50030136108398 0.5000001192092896 23.48115158081055 0.5000001192092896 23.45670127868652 L 0.5000001192092896 0.5427007079124451 C 0.5000001192092896 0.5191606879234314 0.5191600918769836 0.5000006556510925 0.5427001118659973 0.5000006556510925 L 18.02700042724609 0.5000006556510925 C 18.05054092407227 0.5000006556510925 18.06970024108887 0.5191606879234314 18.06970024108887 0.5427007079124451 L 18.06970024108887 23.45670127868652 C 18.06970024108887 23.48115158081055 18.05093955993652 23.50030136108398 18.02700042724609 23.50030136108398 Z" stroke="none"/>
    <path d="M 17.56970024108887 23.00030136108398 L 17.56970024108887 1.000000715255737 L 1.00000011920929 1.000000715255737 L 1.00000011920929 23.00030136108398 L 17.56970024108887 23.00030136108398 M 18.02700042724609 24.00030136108398 L 0.5427001118659973 24.00030136108398 C 0.2430001199245453 24.00030136108398 1.205444277729839e-07 23.75730133056641 1.205444277729839e-07 23.45670127868652 L 1.205444277729839e-07 0.5427007079124451 C 1.205444277729839e-07 0.2430006861686707 0.2430001199245453 6.805419729971618e-07 0.5427001118659973 6.805419729971618e-07 L 18.02700042724609 6.805419729971618e-07 C 18.32670021057129 6.805419729971618e-07 18.56970024108887 0.2430006861686707 18.56970024108887 0.5427007079124451 L 18.56970024108887 23.45670127868652 C 18.56970024108887 23.75730133056641 18.32670021057129 24.00030136108398 18.02700042724609 24.00030136108398 Z" stroke="none" fill="#20d994"/>
  </g>
  <g id="Shape-2" data-name="Shape" transform="translate(2.335 2.335)" fill="#173143" stroke-miterlimit="10">
    <path d="M 3.258000135421753 4.115200042724609 L 0.5427001118659973 4.115200042724609 C 0.5191600918769836 4.115200042724609 0.5000001192092896 4.09604024887085 0.5000001192092896 4.072500228881836 L 0.5000001192092896 0.5426999926567078 C 0.5000001192092896 0.5191600322723389 0.5191600918769836 0.5 0.5427001118659973 0.5 L 3.258000135421753 0.5 C 3.281540155410767 0.5 3.300700187683105 0.5191600322723389 3.300700187683105 0.5426999926567078 L 3.300700187683105 4.072500228881836 C 3.300700187683105 4.09604024887085 3.281540155410767 4.115200042724609 3.258000135421753 4.115200042724609 Z" stroke="none"/>
    <path d="M 2.800700187683105 3.615200042724609 L 2.800700187683105 1 L 1.00000011920929 1 L 1.00000011920929 3.615200042724609 L 2.800700187683105 3.615200042724609 M 3.258000135421753 4.615200042724609 L 0.5427001118659973 4.615200042724609 C 0.2430000901222229 4.615200042724609 9.384154964209301e-08 4.372200012207031 9.384154964209301e-08 4.072500228881836 L 9.384154964209301e-08 0.5426999926567078 C 9.384154964209301e-08 0.2430000156164169 0.2430000901222229 2.136230392579819e-08 0.5427001118659973 2.136230392579819e-08 L 3.258000135421753 2.136230392579819e-08 C 3.557700157165527 2.136230392579819e-08 3.800700187683105 0.2430000156164169 3.800700187683105 0.5426999926567078 L 3.800700187683105 4.072500228881836 C 3.800700187683105 4.372200012207031 3.557700157165527 4.615200042724609 3.258000135421753 4.615200042724609 Z" stroke="none" fill="#20d994"/>
  </g>
  <g id="Shape-3" data-name="Shape" transform="translate(7.385 2.335)" fill="#173143" stroke-miterlimit="10">
    <path d="M 3.258000135421753 4.115200042724609 L 0.5427001118659973 4.115200042724609 C 0.5191600918769836 4.115200042724609 0.5000001192092896 4.09604024887085 0.5000001192092896 4.072500228881836 L 0.5000001192092896 0.5426999926567078 C 0.5000001192092896 0.5191600322723389 0.5191600918769836 0.5 0.5427001118659973 0.5 L 3.258000135421753 0.5 C 3.281540155410767 0.5 3.300700187683105 0.5191600322723389 3.300700187683105 0.5426999926567078 L 3.300700187683105 4.072500228881836 C 3.300700187683105 4.09604024887085 3.281540155410767 4.115200042724609 3.258000135421753 4.115200042724609 Z" stroke="none"/>
    <path d="M 2.800700187683105 3.615200042724609 L 2.800700187683105 1 L 1.00000011920929 1 L 1.00000011920929 3.615200042724609 L 2.800700187683105 3.615200042724609 M 3.258000135421753 4.615200042724609 L 0.5427001118659973 4.615200042724609 C 0.2430000901222229 4.615200042724609 9.384154964209301e-08 4.372200012207031 9.384154964209301e-08 4.072500228881836 L 9.384154964209301e-08 0.5426999926567078 C 9.384154964209301e-08 0.2430000156164169 0.2430000901222229 2.136230392579819e-08 0.5427001118659973 2.136230392579819e-08 L 3.258000135421753 2.136230392579819e-08 C 3.557700157165527 2.136230392579819e-08 3.800700187683105 0.2430000156164169 3.800700187683105 0.5426999926567078 L 3.800700187683105 4.072500228881836 C 3.800700187683105 4.372200012207031 3.557700157165527 4.615200042724609 3.258000135421753 4.615200042724609 Z" stroke="none" fill="#20d994"/>
  </g>
  <g id="Shape-4" data-name="Shape" transform="translate(12.434 2.335)" fill="#173143" stroke-miterlimit="10">
    <path d="M 3.258000135421753 4.115200042724609 L 0.5427001118659973 4.115200042724609 C 0.5191600918769836 4.115200042724609 0.5000001192092896 4.09604024887085 0.5000001192092896 4.072500228881836 L 0.5000001192092896 0.5426999926567078 C 0.5000001192092896 0.5191600322723389 0.5191600918769836 0.5 0.5427001118659973 0.5 L 3.258000135421753 0.5 C 3.281540155410767 0.5 3.300700187683105 0.5191600322723389 3.300700187683105 0.5426999926567078 L 3.300700187683105 4.072500228881836 C 3.300700187683105 4.09604024887085 3.281540155410767 4.115200042724609 3.258000135421753 4.115200042724609 Z" stroke="none"/>
    <path d="M 2.800700187683105 3.615200042724609 L 2.800700187683105 1 L 1.00000011920929 1 L 1.00000011920929 3.615200042724609 L 2.800700187683105 3.615200042724609 M 3.258000135421753 4.615200042724609 L 0.5427001118659973 4.615200042724609 C 0.2430000901222229 4.615200042724609 9.384154964209301e-08 4.372200012207031 9.384154964209301e-08 4.072500228881836 L 9.384154964209301e-08 0.5426999926567078 C 9.384154964209301e-08 0.2430000156164169 0.2430000901222229 2.136230392579819e-08 0.5427001118659973 2.136230392579819e-08 L 3.258000135421753 2.136230392579819e-08 C 3.557700157165527 2.136230392579819e-08 3.800700187683105 0.2430000156164169 3.800700187683105 0.5426999926567078 L 3.800700187683105 4.072500228881836 C 3.800700187683105 4.372200012207031 3.557700157165527 4.615200042724609 3.258000135421753 4.615200042724609 Z" stroke="none" fill="#20d994"/>
  </g>
  <g id="Shape-5" data-name="Shape" transform="translate(2.335 8.199)" fill="#173143" stroke-miterlimit="10">
    <path d="M 3.258000135421753 4.115200042724609 L 0.5427001118659973 4.115200042724609 C 0.5191600918769836 4.115200042724609 0.5000001192092896 4.09604024887085 0.5000001192092896 4.072500228881836 L 0.5000001192092896 0.5426999926567078 C 0.5000001192092896 0.5191600322723389 0.5191600918769836 0.5 0.5427001118659973 0.5 L 3.258000135421753 0.5 C 3.281540155410767 0.5 3.300700187683105 0.5191600322723389 3.300700187683105 0.5426999926567078 L 3.300700187683105 4.072500228881836 C 3.300700187683105 4.09604024887085 3.281540155410767 4.115200042724609 3.258000135421753 4.115200042724609 Z" stroke="none"/>
    <path d="M 2.800700187683105 3.615200042724609 L 2.800700187683105 1 L 1.00000011920929 1 L 1.00000011920929 3.615200042724609 L 2.800700187683105 3.615200042724609 M 3.258000135421753 4.615200042724609 L 0.5427001118659973 4.615200042724609 C 0.2430000901222229 4.615200042724609 9.384154964209301e-08 4.372200012207031 9.384154964209301e-08 4.072500228881836 L 9.384154964209301e-08 0.5426999926567078 C 9.384154964209301e-08 0.2430000156164169 0.2430000901222229 2.136230392579819e-08 0.5427001118659973 2.136230392579819e-08 L 3.258000135421753 2.136230392579819e-08 C 3.557700157165527 2.136230392579819e-08 3.800700187683105 0.2430000156164169 3.800700187683105 0.5426999926567078 L 3.800700187683105 4.072500228881836 C 3.800700187683105 4.372200012207031 3.557700157165527 4.615200042724609 3.258000135421753 4.615200042724609 Z" stroke="none" fill="#20d994"/>
  </g>
  <g id="Shape-6" data-name="Shape" transform="translate(7.385 8.199)" fill="#173143" stroke-miterlimit="10">
    <path d="M 3.258000135421753 4.115200042724609 L 0.5427001118659973 4.115200042724609 C 0.5191600918769836 4.115200042724609 0.5000001192092896 4.09604024887085 0.5000001192092896 4.072500228881836 L 0.5000001192092896 0.5426999926567078 C 0.5000001192092896 0.5191600322723389 0.5191600918769836 0.5 0.5427001118659973 0.5 L 3.258000135421753 0.5 C 3.281540155410767 0.5 3.300700187683105 0.5191600322723389 3.300700187683105 0.5426999926567078 L 3.300700187683105 4.072500228881836 C 3.300700187683105 4.09604024887085 3.281540155410767 4.115200042724609 3.258000135421753 4.115200042724609 Z" stroke="none"/>
    <path d="M 2.800700187683105 3.615200042724609 L 2.800700187683105 1 L 1.00000011920929 1 L 1.00000011920929 3.615200042724609 L 2.800700187683105 3.615200042724609 M 3.258000135421753 4.615200042724609 L 0.5427001118659973 4.615200042724609 C 0.2430000901222229 4.615200042724609 9.384154964209301e-08 4.372200012207031 9.384154964209301e-08 4.072500228881836 L 9.384154964209301e-08 0.5426999926567078 C 9.384154964209301e-08 0.2430000156164169 0.2430000901222229 2.136230392579819e-08 0.5427001118659973 2.136230392579819e-08 L 3.258000135421753 2.136230392579819e-08 C 3.557700157165527 2.136230392579819e-08 3.800700187683105 0.2430000156164169 3.800700187683105 0.5426999926567078 L 3.800700187683105 4.072500228881836 C 3.800700187683105 4.372200012207031 3.557700157165527 4.615200042724609 3.258000135421753 4.615200042724609 Z" stroke="none" fill="#20d994"/>
  </g>
  <g id="Shape-7" data-name="Shape" transform="translate(12.434 8.199)" fill="#173143" stroke-miterlimit="10">
    <path d="M 3.258000135421753 4.115200042724609 L 0.5427001118659973 4.115200042724609 C 0.5191600918769836 4.115200042724609 0.5000001192092896 4.09604024887085 0.5000001192092896 4.072500228881836 L 0.5000001192092896 0.5426999926567078 C 0.5000001192092896 0.5191600322723389 0.5191600918769836 0.5 0.5427001118659973 0.5 L 3.258000135421753 0.5 C 3.281540155410767 0.5 3.300700187683105 0.5191600322723389 3.300700187683105 0.5426999926567078 L 3.300700187683105 4.072500228881836 C 3.300700187683105 4.09604024887085 3.281540155410767 4.115200042724609 3.258000135421753 4.115200042724609 Z" stroke="none"/>
    <path d="M 2.800700187683105 3.615200042724609 L 2.800700187683105 1 L 1.00000011920929 1 L 1.00000011920929 3.615200042724609 L 2.800700187683105 3.615200042724609 M 3.258000135421753 4.615200042724609 L 0.5427001118659973 4.615200042724609 C 0.2430000901222229 4.615200042724609 9.384154964209301e-08 4.372200012207031 9.384154964209301e-08 4.072500228881836 L 9.384154964209301e-08 0.5426999926567078 C 9.384154964209301e-08 0.2430000156164169 0.2430000901222229 2.136230392579819e-08 0.5427001118659973 2.136230392579819e-08 L 3.258000135421753 2.136230392579819e-08 C 3.557700157165527 2.136230392579819e-08 3.800700187683105 0.2430000156164169 3.800700187683105 0.5426999926567078 L 3.800700187683105 4.072500228881836 C 3.800700187683105 4.372200012207031 3.557700157165527 4.615200042724609 3.258000135421753 4.615200042724609 Z" stroke="none" fill="#20d994"/>
  </g>
  <g id="Shape-8" data-name="Shape" transform="translate(2.335 14.063)" fill="#173143" stroke-miterlimit="10">
    <path d="M 3.258000135421753 4.115200042724609 L 0.5427001118659973 4.115200042724609 C 0.5191600918769836 4.115200042724609 0.5000001192092896 4.09604024887085 0.5000001192092896 4.072500228881836 L 0.5000001192092896 0.5426999926567078 C 0.5000001192092896 0.5191600322723389 0.5191600918769836 0.5 0.5427001118659973 0.5 L 3.258000135421753 0.5 C 3.281540155410767 0.5 3.300700187683105 0.5191600322723389 3.300700187683105 0.5426999926567078 L 3.300700187683105 4.072500228881836 C 3.300700187683105 4.09604024887085 3.281540155410767 4.115200042724609 3.258000135421753 4.115200042724609 Z" stroke="none"/>
    <path d="M 2.800700187683105 3.615200042724609 L 2.800700187683105 1 L 1.00000011920929 1 L 1.00000011920929 3.615200042724609 L 2.800700187683105 3.615200042724609 M 3.258000135421753 4.615200042724609 L 0.5427001118659973 4.615200042724609 C 0.2430000901222229 4.615200042724609 9.384154964209301e-08 4.372200012207031 9.384154964209301e-08 4.072500228881836 L 9.384154964209301e-08 0.5426999926567078 C 9.384154964209301e-08 0.2430000156164169 0.2430000901222229 2.136230392579819e-08 0.5427001118659973 2.136230392579819e-08 L 3.258000135421753 2.136230392579819e-08 C 3.557700157165527 2.136230392579819e-08 3.800700187683105 0.2430000156164169 3.800700187683105 0.5426999926567078 L 3.800700187683105 4.072500228881836 C 3.800700187683105 4.372200012207031 3.557700157165527 4.615200042724609 3.258000135421753 4.615200042724609 Z" stroke="none" fill="#20d994"/>
  </g>
</svg>
