<svg id="shape-size-interface-symbol" xmlns="http://www.w3.org/2000/svg" width="19.373" height="24" viewBox="0 0 19.373 24">
  <path id="Shape" d="M1.114,2.034h12.52v.857h1.113V0H13.634V.858H1.114V0H0V2.892H1.114Z" fill="#173143"/>
  <g id="Shape-2" data-name="Shape" transform="translate(16.482 4.337)" fill="#3f3f47" stroke-miterlimit="10">
    <path d="M 2.391563177108765 19.16265487670898 L 0.5000031590461731 19.16265487670898 L 0.5000031590461731 19.03288459777832 L 0.8577631115913391 19.03288459777832 L 1.357763171195984 19.03288459777832 L 1.357763171195984 18.53288459777832 L 1.357763171195984 1.129765510559082 L 1.357763171195984 0.629765510559082 L 0.8577631115913391 0.629765510559082 L 0.5000031590461731 0.629765510559082 L 0.5000031590461731 0.4999955296516418 L 2.391563177108765 0.4999955296516418 L 2.391563177108765 0.629765510559082 L 2.034073114395142 0.629765510559082 L 1.534073114395142 0.629765510559082 L 1.534073114395142 1.129765510559082 L 1.534073114395142 18.53288459777832 L 1.534073114395142 19.03288459777832 L 2.034073114395142 19.03288459777832 L 2.391563177108765 19.03288459777832 L 2.391563177108765 19.16265487670898 Z" stroke="none"/>
    <path d="M 3.099441528320313e-06 -3.814697265625e-06 L 2.891563177108765 -3.814697265625e-06 L 2.891563177108765 1.129766464233398 L 2.034073114395142 1.129766464233398 L 2.034073114395142 18.53288650512695 L 2.891563177108765 18.53288650512695 L 2.891563177108765 19.66265487670898 L 3.099441528320313e-06 19.66265487670898 L 3.099441528320313e-06 18.53288650512695 L 0.8577630519866943 18.53288650512695 L 0.8577630519866943 1.129766464233398 L 3.099441528320313e-06 1.129766464233398 L 3.099441528320313e-06 -3.814697265625e-06 Z" stroke="none" fill="#173143"/>
  </g>
  <g id="Shape-3" data-name="Shape" transform="translate(0 4.337)" fill="#173143" stroke-miterlimit="10">
    <path d="M 14.68630027770996 19.31229972839355 L 0.3500003218650818 19.31229972839355 L 0.3500003218650818 0.3500000536441803 L 14.68630027770996 0.3500000536441803 L 14.68630027770996 19.31229972839355 Z" stroke="none"/>
    <path d="M 14.33629989624023 18.96229934692383 L 14.33629989624023 0.7000000476837158 L 0.7000003457069397 0.7000000476837158 L 0.7000003457069397 18.96229934692383 L 14.33629989624023 18.96229934692383 M 15.03630065917969 19.66230010986328 L 3.295898522992502e-07 19.66230010986328 L 3.295898522992502e-07 5.493163968139925e-08 L 15.03630065917969 5.493163968139925e-08 L 15.03630065917969 19.66230010986328 Z" stroke="none" fill="#20d994"/>
  </g>
</svg>
