<svg xmlns="http://www.w3.org/2000/svg" width="55.785" height="49.53" viewBox="0 0 55.785 49.53">
  <g id="shopping-cart_1_" data-name="shopping-cart (1)" transform="translate(0 0)">
    <path id="Path_6389" data-name="Path 6389" d="M18.086,32.687H47.613a1.629,1.629,0,0,0,1.57-1.186L55.721,8.62a1.632,1.632,0,0,0-1.571-2.083H14.313L13.145,1.28A1.634,1.634,0,0,0,11.549,0H1.634a1.634,1.634,0,0,0,0,3.269h8.6l5.9,26.558a4.9,4.9,0,0,0,1.947,9.4H47.613a1.634,1.634,0,1,0,0-3.269H18.086a1.634,1.634,0,1,1,0-3.269Zm0,0" transform="translate(0)" fill="#9d9d9d"/>
    <path id="Path_6390" data-name="Path 6390" d="M151,364.907a4.9,4.9,0,1,0,4.9-4.9A4.908,4.908,0,0,0,151,364.907Zm0,0" transform="translate(-134.548 -320.78)" fill="#9d9d9d" stroke="#20d994" stroke-width="1"/>
    <path id="Path_6391" data-name="Path 6391" d="M362,364.907a4.9,4.9,0,1,0,4.9-4.9A4.908,4.908,0,0,0,362,364.907Zm0,0" transform="translate(-322.562 -320.78)" fill="#9d9d9d" stroke="#20d994" stroke-width="1"/>
  </g>
</svg>
