<svg xmlns="http://www.w3.org/2000/svg" width="24.544" height="24.5" viewBox="0 0 24.544 24.5">
  <path id="washroom" d="M6.708,23.992A.4.4,0,0,1,6.4,23.52C7.232,19.328,5.8,18.2,4.28,17A5.658,5.658,0,0,1,1.6,12.4H1.2A.4.4,0,0,1,.8,12V2.4H.4A.4.4,0,0,1,0,2V.4A.4.4,0,0,1,.4,0H8a.4.4,0,0,1,.4.4V2a.4.4,0,0,1-.4.4H7.6V3.6H8A1.2,1.2,0,0,1,8,6H7.6v5.6h.8V10.4a.4.4,0,0,1,.4-.4h14a1.2,1.2,0,0,1,.4,2.332A6.152,6.152,0,0,1,18.8,17.6c0,2.344,0,3.892,1.144,5.8a.407.407,0,0,1,.056.2.4.4,0,0,1-.4.4H6.781A.362.362,0,0,1,6.708,23.992Z" transform="translate(0.25 0.25)" fill="#173143" stroke="#20d994" stroke-miterlimit="10" stroke-width="0.5"/>
</svg>
